<?xml version="1.0" encoding="utf-8"?>
<!-- Generator: Adobe Illustrator 22.0.0, SVG Export Plug-In . SVG Version: 6.00 Build 0)  -->
<svg version="1.1" id="Слой_1" xmlns="http://www.w3.org/2000/svg" xmlns:xlink="http://www.w3.org/1999/xlink" x="0px" y="0px"
	 viewBox="0 0 733.2 132.1" style="enable-background:new 0 0 733.2 132.1;" xml:space="preserve">
<style type="text/css">
	.st0{fill:#FFFFFF;}
</style>
<g>
	<g>
		<path class="st0" d="M8.2,17.4h11.5v85.2H8.2V17.4z M14,17.4h39.8v11H14V17.4z M14,54.8h35.2v10.9H14V54.8z M14,91.6h39.8v11H14
			V91.6z"/>
		<path class="st0" d="M97.7,41.8h11.8l-19.7,60.8h-8.9L61.2,41.8h11.8l12.4,44.1L97.7,41.8z"/>
		<path class="st0" d="M133.7,103.5c0,0-1.7-0.9-5-2.8c-3.4-1.9-5.9-4.5-7.7-8.1c-1.8-3.5-2.7-7.8-2.7-12.9V65.7
			c0-5.2,0.9-9.7,2.6-13.4c1.7-3.7,4.2-6.5,7.5-8.5c3.3-2,7.2-2.9,11.8-2.9c4.5,0,8.3,1,11.4,3c3.2,2,5.6,5,7.2,8.8
			c1.7,3.9,2.5,8.5,2.5,14v10.1h-34.8v-9.5h23.8V64c0-4-1-7.1-2.8-9.4c-1.8-2.3-4.3-3.4-7.4-3.4c-3.4,0-6.1,1.2-8,3.6
			c-1.9,2.4-2.8,5.8-2.8,10.2v15c0,4,1,7.1,3,9.3c2,2.2,4.9,3.3,8.6,3.3c2.4,0,4.3-0.6,5.9-1.7s2.6-2.7,3.3-4.8l10.5,3.4
			c-1.1,4.6-3.4,8.1-6.7,10.5c-3.3,2.3-7.7,3.5-13,3.5C136.1,103.5,133.7,103.5,133.7,103.5z"/>
		<path class="st0" d="M175.4,41.8h11.5v60.8h-11.5V41.8z M206.8,63c0-3.7-0.9-6.5-2.6-8.5c-1.7-1.9-4.2-2.9-7.5-2.9
			c-3.2,0-5.6,0.9-7.3,2.8c-1.7,1.8-2.5,4.5-2.5,8l-1.2-10.2c1.6-3.8,3.8-6.6,6.5-8.5c2.7-1.9,5.8-2.9,9.2-2.9
			c5.5,0,9.7,1.8,12.6,5.4c2.9,3.6,4.4,8.7,4.4,15.3v41.2h-11.5V63z"/>
		<path class="st0" d="M229.2,41.8h26.8v10.7h-26.8V41.8z M238.9,98.8c-2.3-2.7-3.5-6.7-3.5-12.1V24.1H247v62.8c0,1.6,0.3,2.9,1,3.8
			c0.7,0.9,1.7,1.3,3,1.3h5.1v11h-6.3C244.8,102.9,241.2,101.5,238.9,98.8z"/>
		<path class="st0" d="M280.6,103.5c0,0-1.5-0.5-4.5-1.6c-3-1.1-5.5-2.7-7.4-4.9c-1.9-2.2-3.3-4.9-4.2-8.1l10.3-4.6
			c1.2,2.9,2.8,5.1,4.7,6.6s4.4,2.2,7.3,2.2c3.6,0,6.3-0.7,8.1-2.2c1.9-1.4,2.8-3.5,2.8-6.2c0-1.8-0.5-3.2-1.6-4.2
			c-1-1-2.3-1.7-3.8-2.2s-3.7-1-6.4-1.5c-0.2,0-0.5-0.1-0.7-0.1c-0.3,0-0.5-0.1-0.8-0.1c-0.1-0.1-0.2-0.1-0.4-0.1s-0.3,0-0.4,0
			c-3.4-0.7-6.3-1.5-8.7-2.6c-2.4-1.1-4.4-2.7-5.9-5.1c-1.6-2.3-2.4-5.5-2.4-9.5c0-4,0.8-7.4,2.4-10.2s3.9-4.8,7-6.3
			c3.1-1.4,6.8-2.1,11.2-2.1c3.8,0,7,0.5,9.8,1.4c2.8,1,5.1,2.4,6.9,4.3s3.2,4.4,4.1,7.3l-10.4,4.6c-1-2.5-2.4-4.3-4.1-5.5
			c-1.7-1.2-3.8-1.8-6.3-1.8c-3.1,0-5.4,0.7-7,2s-2.4,3.4-2.4,6c0,1.7,0.5,3,1.5,3.9c1,0.9,2.2,1.6,3.8,2.1c1.5,0.4,3.7,0.9,6.4,1.3
			c0,0,0.1,0.1,0.2,0.1s0.2,0,0.3,0c0.1,0,0.2,0.1,0.3,0.1c0.1,0,0.2,0,0.3,0c3.8,0.7,6.9,1.5,9.4,2.5c2.5,1,4.7,2.7,6.4,5.2
			c1.7,2.5,2.6,6,2.6,10.4c0,4-0.8,7.4-2.5,10.2c-1.7,2.8-4.2,4.9-7.5,6.3c-3.3,1.4-7.3,2.1-12.1,2.1
			C282.6,103.5,280.6,103.5,280.6,103.5z"/>
		<path class="st0" d="M353.9,70c-2.7,2.3-4.1,5.6-4.1,9.9c0,4.2,1.2,7.5,3.8,9.8c2.5,2.3,6,3.5,10.6,3.5c4.3,0,7.9-1.3,10.9-4
			c3-2.7,5.3-6.5,6.9-11.5s2.4-11.1,2.4-18.2h10.9c0,9.3-1.3,17.2-3.9,23.8c-2.6,6.6-6.4,11.6-11.5,15c-5,3.4-11.1,5.2-18.2,5.2
			c-4.8,0-9-0.9-12.5-2.8c-3.5-1.8-6.1-4.5-7.9-8.1c-1.8-3.5-2.7-7.8-2.7-12.7c0-6.7,1.9-12.1,5.7-16.1c3.8-4,9.2-6.3,16.2-7
			l4.8,9.7C360.5,66.5,356.6,67.7,353.9,70z M358.9,68c-2.6-3.3-4.7-6.5-6.5-9.7s-3.1-6.4-4-9.7c-0.9-3.3-1.4-6.7-1.4-10.3
			c0-7,1.8-12.3,5.4-16.1s8.6-5.6,15.2-5.6c6.5,0,11.6,1.8,15.1,5.5c3.5,3.7,5.3,8.9,5.3,15.6v3.8h-11.5v-3.8c0-3.2-0.8-5.7-2.3-7.4
			c-1.5-1.7-3.7-2.5-6.6-2.5c-2.9,0-5.1,0.9-6.7,2.7c-1.6,1.8-2.3,4.4-2.3,7.8c0,2.5,0.4,5,1.1,7.5c0.7,2.5,1.7,5.1,3.1,7.6
			c1.4,2.5,3,5,5,7.6l33.4,41.5h-14.6L358.9,68z"/>
		<path class="st0" d="M429.5,17.4H441v85.2h-11.5V17.4z M435.6,58.6h21.7c2,0,3.8-0.5,5.4-1.4c1.5-1,2.7-2.3,3.5-4.1
			c0.8-1.8,1.2-3.8,1.2-6.2v-6.6c0-2.4-0.4-4.5-1.2-6.3c-0.8-1.8-2-3.2-3.5-4.2c-1.5-1-3.3-1.5-5.4-1.5h-21.7v-11H457
			c4.6,0,8.5,0.9,11.9,2.8c3.3,1.8,5.9,4.5,7.7,7.9c1.8,3.4,2.7,7.5,2.7,12.1V47c0,4.6-0.9,8.6-2.7,12s-4.4,6-7.8,7.8
			c-3.4,1.8-7.3,2.7-11.8,2.7h-21.3V58.6z"/>
		<path class="st0" d="M506.7,103.5c0,0-1.7-0.9-5-2.8c-3.4-1.9-5.9-4.5-7.7-8.1c-1.8-3.5-2.7-7.8-2.7-12.9V65.7
			c0-5.2,0.9-9.7,2.6-13.4c1.7-3.7,4.2-6.5,7.5-8.5c3.3-2,7.2-2.9,11.8-2.9c4.5,0,8.3,1,11.4,3c3.2,2,5.6,5,7.2,8.8
			c1.7,3.9,2.5,8.5,2.5,14v10.1h-34.8v-9.5h23.8V64c0-4-1-7.1-2.8-9.4c-1.8-2.3-4.3-3.4-7.4-3.4c-3.4,0-6.1,1.2-8,3.6
			c-1.9,2.4-2.8,5.8-2.8,10.2v15c0,4,1,7.1,3,9.3c2,2.2,4.9,3.3,8.6,3.3c2.4,0,4.3-0.6,5.9-1.7s2.6-2.7,3.3-4.8l10.5,3.4
			c-1.1,4.6-3.4,8.1-6.7,10.5c-3.3,2.3-7.7,3.5-13,3.5C509.1,103.5,506.7,103.5,506.7,103.5z"/>
		<path class="st0" d="M556.8,100.9c-3.2-1.7-5.6-4.2-7.3-7.5c-1.7-3.3-2.5-7.3-2.5-11.9V62.6c0-4.6,0.8-8.5,2.5-11.8
			c1.7-3.3,4.1-5.7,7.3-7.4c3.2-1.7,7-2.5,11.5-2.5c4.5,0,8.3,0.8,11.5,2.5c3.2,1.7,5.6,4.2,7.3,7.4c1.7,3.3,2.5,7.2,2.5,11.8v19
			c0,4.6-0.8,8.5-2.5,11.8c-1.7,3.3-4.1,5.8-7.3,7.5c-3.2,1.7-7,2.6-11.5,2.6C563.8,103.5,560,102.6,556.8,100.9z M575.4,89.5
			c1.7-1.9,2.5-4.6,2.5-8.1V62.8c0-3.5-0.8-6.2-2.5-8.1c-1.7-1.9-4.1-2.8-7.2-2.8c-3.1,0-5.5,0.9-7.2,2.8c-1.7,1.9-2.5,4.6-2.5,8.1
			v18.6c0,3.5,0.8,6.2,2.5,8.1s4.1,2.9,7.2,2.9C571.3,92.4,573.7,91.4,575.4,89.5z"/>
		<path class="st0" d="M603.9,41.8h11.5v85.5h-11.5V41.8z M620,100.7c-2.5-1.8-4.3-4.4-5.4-7.7l0.8-11.1c0,2.3,0.4,4.3,1.1,6
			c0.7,1.6,1.8,2.9,3.3,3.8c1.4,0.9,3.2,1.3,5.2,1.3c3.1,0,5.5-1,7.2-3.1c1.7-2.1,2.6-5,2.6-8.7v-18c0-3.7-0.9-6.6-2.6-8.7
			c-1.7-2.1-4.1-3.1-7.2-3.1c-2,0-3.8,0.4-5.2,1.3c-1.4,0.8-2.5,2.1-3.3,3.7c-0.7,1.6-1.1,3.5-1.1,5.8l-1.2-10.1
			c1.5-3.6,3.6-6.3,6.2-8.2s5.6-2.9,8.8-2.9c3.6,0,6.7,0.9,9.2,2.6c2.6,1.7,4.5,4.2,5.8,7.5c1.3,3.3,2,7.3,2,12v18.5
			c0,4.6-0.7,8.6-2.1,11.9c-1.4,3.3-3.4,5.8-6,7.6s-5.8,2.6-9.5,2.6C625.3,103.5,622.4,102.6,620,100.7z"/>
		<path class="st0" d="M672.2,86.7c0,1.6,0.4,2.9,1.1,3.8c0.7,0.9,1.7,1.3,3,1.3h4.5v10.9h-5.9c-4.5,0-8-1.4-10.5-4.2
			c-2.5-2.8-3.7-6.8-3.7-11.9V17.4h11.5V86.7z"/>
		<path class="st0" d="M705.8,103.5c0,0-1.7-0.9-5-2.8c-3.4-1.9-5.9-4.5-7.7-8.1c-1.8-3.5-2.7-7.8-2.7-12.9V65.7
			c0-5.2,0.9-9.7,2.6-13.4c1.7-3.7,4.2-6.5,7.5-8.5c3.3-2,7.2-2.9,11.8-2.9c4.5,0,8.3,1,11.4,3c3.2,2,5.6,5,7.2,8.8
			c1.7,3.9,2.5,8.5,2.5,14v10.1h-34.8v-9.5h23.8V64c0-4-1-7.1-2.8-9.4c-1.8-2.3-4.3-3.4-7.4-3.4c-3.4,0-6.1,1.2-8,3.6
			c-1.9,2.4-2.8,5.8-2.8,10.2v15c0,4,1,7.1,3,9.3c2,2.2,4.9,3.3,8.6,3.3c2.4,0,4.3-0.6,5.9-1.7s2.6-2.7,3.3-4.8l10.5,3.4
			c-1.1,4.6-3.4,8.1-6.7,10.5c-3.3,2.3-7.7,3.5-13,3.5C708.2,103.5,705.8,103.5,705.8,103.5z"/>
	</g>
</g>
</svg>
